<mxfile host="65bd71144e">
    <diagram id="Lu83tjWo-Wz-DkkKe9Yt" name="第 1 页">
        <mxGraphModel dx="1138" dy="1009" grid="0" gridSize="10" guides="1" tooltips="1" connect="1" arrows="1" fold="1" page="0" pageScale="1" pageWidth="850" pageHeight="1100" math="0" shadow="0">
            <root>
                <mxCell id="0"/>
                <mxCell id="1" parent="0"/>
                <mxCell id="2" value="&lt;div style=&quot;color: rgb(212, 212, 212); background-color: rgb(30, 30, 30); font-family: Consolas, &amp;quot;Courier New&amp;quot;, monospace; font-weight: normal; font-size: 16px; line-height: 22px;&quot;&gt;&lt;div&gt;&lt;span style=&quot;color: #9cdcfe;&quot;&gt;background&lt;/span&gt;&lt;span style=&quot;color: #d4d4d4;&quot;&gt;: &lt;/span&gt;&lt;span style=&quot;color: #dcdcaa;&quot;&gt;linear-gradient&lt;/span&gt;&lt;span style=&quot;color: #d4d4d4;&quot;&gt;(&lt;/span&gt;&lt;span style=&quot;color: #ce9178;&quot;&gt;red&lt;/span&gt;&lt;span style=&quot;color: #d4d4d4;&quot;&gt;, &lt;/span&gt;&lt;span style=&quot;color: #ce9178;&quot;&gt;deepskyblue&lt;/span&gt;&lt;span style=&quot;color: #d4d4d4;&quot;&gt;);&lt;/span&gt;&lt;/div&gt;&lt;/div&gt;" style="text;whiteSpace=wrap;html=1;" vertex="1" parent="1">
                    <mxGeometry x="-87.99887451171875" y="-19.003343505859377" width="433" height="44" as="geometry"/>
                </mxCell>
                <mxCell id="3" value="如果没有指定渐变的方向, 则默认to bottom, 也就是180deg" style="text;html=1;align=center;verticalAlign=middle;resizable=0;points=[];autosize=1;strokeColor=none;fillColor=none;" vertex="1" parent="1">
                    <mxGeometry x="-139" y="36" width="326" height="26" as="geometry"/>
                </mxCell>
                <mxCell id="4" value="" style="shape=image;verticalLabelPosition=bottom;labelBackgroundColor=default;verticalAlign=top;aspect=fixed;imageAspect=0;image=data:image/png,iVBORw0KGgoAAAANSUhEUgAAAiIAAADXCAYAAAAndDqpAAAgAElEQVR4nO2deXRU153nP7e077sESAIJsW/GxmYz3g22g41j4j2dpbN2TmdOT/d05o85fc5MT/81Z9IzPWe6e9KdcU+nk9iJ4ziJHezYxHZssMEOYLABg9kEAiEBQmhBArS8+aO2V6WSkOqpoltV3+858NX3feu9d3/vvXq/W/fde59xHMdBEARBEARhCuCb6gIIgiAIgpC+UEVEEARBEIQpgyoigiAIgiBMGVQREQRBEARhyqCKiCAIgiAIUwZVRARBEARBmDKoIiIIgiAIwpQhc6IrGGMSUQ5BEARBEP6AsGUaMbWICIIgCIIwZZhwi0gQwwAYwBGLxWKxWJwk7MPBJpiJTvEefDQz5POFwgp50tLS0tLS0lbrjGF/U4Itj2Y8tIiYUQONZvny5cuXL1++Hb5tiLsigvHhGHAcMAHGxTjIly9fvnz58m3zh4ewCXE/mrmamR1YEoxsNMiXL1++fPnybfFzBq/53Yml/4Qh7hYRx2cIVbFMoApGDJYvX758+fLlW+TbhbhbRPqycxNSIEEQBEEQEof8a1cAUqBFxPginj0RqHg5MVi+fPny5cuXb4dvG+JuEenNLUhIgQRBEARBSBwKr1wGICVaRGI9khKLxWKxWGwxW4a4W0S68osSUiBBEARBEBKHkr4egBRrEQlCWlpaWlpa2n5tEeJuEblYWDpmy49YLBaLxWL7uKz3EoA1LSLxV0SKysEQ7oU7SsTy5cuXL1++fHv88u6LAMlfEblQXE7MyMVisVgsFlvLld0dAMlfETlfUkk4sJArLS0tLS0tbbGu6roA2FMRif/tu6FZUUyUIy0tLS0tLW2/tgOTMrNqsJ4lLS0tLS0tbbe2DZ5aRAzgGFeg0tLS0tLS0lZr2xB3H5HWiulEhSgWi8VisdhyntHRCpAqfURMQInFYrFYLE4etgdxt4i0VNUlpECCIAiCICQO9edPAynTIkK4xScIaWlpaWlpafu1JfA2agas6XwjLS0tLS0tfX1tG+J+NHNiWkNCCiQIgiAIQuLQ2NYMkPyPZpxQZ1VHLBaLxWJx0rBdiLtF5Oj02XYcT7FYLBaLxePmOa3HAaxpEYm7InKkdk4orpAnLS0tLS0tbbWee+YoYE9FJP5HMxicqJqWtLS0tLS0tOXaMsTdInK4fn5CCiQIgiAIQuIwv+UwQPK3iAwDVr3FR1paWlpaWvr62jLE3SJycNbChBRIEARBEITEYdHJTwBSoUXEhCtYYrFYLBaLk4JtQ9wtIvsblySkQIIgCILwh4LJcChc2wtA73uFOEMWZupJxpIT+wFIgRYRIPzwSSwWi8XipGKTMUzTT46RO+8KAFcO53L0qTk4Q1hRvsSxXYh/+K7PRzgwAn9LS0tLS0snhy5a1xOqhADkzr9C4bpeurcVW1G+xGm74KmPiD8uE14oLS0tLS2dJDp3UT/RyF3Uz6VtJVaUL6HaInhqEQnGZSDc8CMtLS0tLZ0EOmbPTWNSPr/ZBm+jZnAFKBaLxWJxUrEhGg4m5fObbYi7IoLPBE6iIxaLxWJx8rFhJIxJg/xmF7z1EQkFJBaLxWJxcnGspOyQLvnNHngcNQNTfzDFYrFYLJ44OzH6iDiBPiI2lC9xbBc8togIgiAIQnLCGWWZ8tsfFvG3iBifFVPVisVisVgcD/v/i4IxKZ/fbIOHiojx1yYNYrFYLBYnHcfuI2JSP79ZBg99RAz+qBz8VSxHWlpaWlo6ebRhJIxJg/xmF7z3EQkFJS0tLS0tnTx67FEzU1++xGm74KmPCIZQRUssFovF4mTiUUfNpHp+swye+oj4ORCXQVpaWlpaOnk0sZHy+c0yTEqLiBNgaWlpaWnppNHjaBGxqryTpS1D/H1EgsGIxWKxWJyE7DASDmmQ3yzD5PQRGQ3y5cuXL1++rX6szpvRfUSmsnyJ9C2ChxaRwNsJTTjemCxfvnz58uXb6GOIhoNJ+fxmG+J/+67xhZ49icVisVicdDxKi0jK5zfL4LGPiAHjiMVisVicdOwwEg5pkN8sg7c+IhgInUojLS0tLS2dNHrMeUQsKF/itF3w1EfEj+gTKS0tLS0tbb+OlZYd0im/2QFvb9/Ff9LEYrFYLE42HmvUjA3lS1jclsH7qBnHfy5HDVy+fPny5cu30ccQjYhRM1NdvgT5tsHDqBnjP4nGCZzMUVi+fPny5cu30mckjEmD/GYXPPYRCQYkFovFYnFycayk7JAu+c0eeBw1A1N/MMVisVgsnjiPPWpm6suXOLYL3kfNjPZwKgj58uXLly/fQt9hJBzSKL9ZAu+jZgyxmVGWy5cvX758+Rb41x01Y3n54/Vtg4eKSHhWOrFYLBaLk41j9xExaZHfbIKnikhU3UssFovF4uRhw0gYkwb5zS7E30ckeBJHbRsSi8VisdheHnXUDHaUL2FsGeJvEfEFehUHgxKLxWKxOIl41FEzqZ7fLIOnFhFjCM/cJhaLxWJxMnGa5jfbEP/Mqj6f/yQGT6ZYLBaLxUnFhmg4xqR+frMMHlpEIFTFCiKkDeDIly9fvnz51vouNwQHkwb5zS5MQh+RqKBC2siXL1++fPnJ4wes1M9vdmFS+oiMqIBJS0tLS0vbroMJ2wV/i0iK5zfL4LlFxD0qSFpaWlpaOnl04A83jEn5/GYb4q+IAGO+flgsFovFYqt5JJzQPxvK94eLeyrhsUXEH5gfJgbLly9fvnz5dvpjzyMy9eVLnG8XvM2sClw/MPny5cuXL98+3xllWfrkNzvgqUUkWN8Si8VisTjZOOYokkCLiA3lS1jclsHbqBmm/oCKxWKxWBwfG6LhYFI+v9kG7zOrEu78Ii0tLS0tnTQ6VlY2Ji3ym03wNrNqKKDoupa0tLS0tLTdOnaLSDrkN7ugUTPy5cuXLz8tfY2asQMaNSNfvnz58tPSd0ZZlj75zQ7E3yJifKEpY8VisVgsTjYmVqI2JuXzm23wUBEJvLnQIE4VdrrZfaSFutmLqckc6Xed/4jdnRmUl5VQUTCduvyMKS73EP39F/n0/FHasxazYUax4v8D7Lev4yN2Ds3nruqcGP55dh1soa+onJqCYupLysnLmKrjE+DBPto7W/i0/Sr1C5fR4LE86R5/KnHMRzOY1M9vlsFTRcSKqp14cnigg517X+QnJy9T3N7PV9bcQkO2+3ODtJ37Hb88HLgAZm7kv66cS/F4tz94hf7BPtq7O2jrPM/pzrOUND3M+sqMOMrbw+7dr/LKibN0BC/I0kzmTl9Fg0/xJ/I66W9/j3/a9gHN7KFt1aM8WVcU+bme8+w4tJ0jABSw8e6vsb58/NsfuHaF7r7ztHd30N51gYP9dTy5cgEVcZR3oGMP/7xnN0e6+0L3rWWlc/nKzALFP9X3G1s4FoxJ/fxmGeLvIxIMRpz8PHiR9/e+yE9PXgag+/x7/N32y3x91V0sLAh+ro8LlwihtqyEQkZeB4NX2vjoTCvdQ9Dd08yZfujuaqH9CiNRcJY7qur9F+GEyl3MrIpcOk64tnVpBzvaljOzNkfxT3h74+P+9vf4/rYPaPYfJXa+/1O6rjzMH8+tJjMYf19nIAkDzGFGkfGPQIjY3lXaW4/ySe8VGOym+eJF+ge6OXKxK8ZB6uLTRQtYVTjx8maUVdNwrc9VHvjo00O0zFxBreKf8PZSkWO3iKRBfrMMnvqIYPCfNXFys2+YvoGoE3xxH9/fNsSXb9/A0kJgsJv29rA9t6TS37M8ant9F/bwo71HGBcON3Ni8SzmZE683GXTFrKUE3zs2tz7zce4t24J5Yo/IddJn3MtKoDLfLLvV3x/eBNfWzCdTANdfefDdk0N1dk+/5s/I7Z3iY92bOXVcR2kFvZc6GFlUcnEy501iwVNBWw9cDm8uUt72HfhRmZUZSr+qb7vWMAxh+8ak/r5zTIYx3GcCa0QqFF99/H/AIyMSzpJ9WArb7z9HK92uMyKdXxzwQD/9O77jA/reHp1O8/uHGciBu644894qCaTnlMv8dcTWG9yMJenH9rETXko/gCud710nHqFv9/5CT2hJQXcuOozzD39M54/M769Ll39Gep2vjLORAzUbOA/3bGUclr57fPP8ZvxrjdZWPIU3100A1D81tyvJkmv2fQeazftwI0dL63hvZfWWlG+ROm/fP5v/Xpi6T9hmJQWkegav3QS6qw67r7r8zhv/ZjfdEDRjDv56tpbqL20cwJXhSFm01/hDOYUZlJeOpvq/EJqSgsoyq+hPDeHvAz//mM1kSYeBvDh+FD847xeymc9yLcN/P2OT+hhBmtve5BHajP5sHUiuw3OWulGAdXVFRTnVDCrooTyghrK8wuoKSokLzuHTCdwz5kKGF/ofpfu8Vtzv5osHaN5ILpFxKryTpa2DB76iID/xhv4Skknv86s5a61D9Nx8Cq337iU6kwTOM/jR/QN9r713+HuiqAyUZ8wDAf08MR2M2lwTGDfip/xXi+ls+7nC5fhUPkG7puWzTCXYyTWMfZJ1HGqf5C/unUhRTGOT1AH7zcT2c9kYljxM+X3pwToWEnZSeF4Q9oyeGsRAQIRuiCd1LpwAZ9b6f/TAfDl0jStls62M1wMfKS8chZlMa+cXDKiNufgi/qyx95/RmETG5fXxtpoCP2XDvJms6ujxoyb2FhdEhBdHNu7h0Mhs4blixZRmz3WFnMpy4oqX7rHP67rJZuZizcxk2Ca9JGbP4umkgsc6wr0R8itoKm0MOZey7KyIhNq4Beoc939FzJj+V1sHCuk6xyHsY/hKCguirrfpXv8o5UvFbR/WXrFO/XwNGrGMFr9XTo59SDt7R0U19SQG/QrVvDVdaW89MLP8D+kmMWda57i5qLY2+s+eQo3HBNuVRhr/zlVN7CuKsp3LnPowPsMNt7N4gLoPdkaeROtXMyti4LJ+wwDETfgUubPW8UN+TDYeYyTeU3MyY29/+GQTvf4x3m9XG3n2NUK5hRnBvxC5q54isJD/4//vSeQiBs38OUbZ5ERc3tneCviKBmGjRnRUjBy/6XMXbSKuVH+lUv7ePNsJfctrCWDM1wb5Tj4z89ox/ASLa1DVM2oIDfG/ocVvwX3pwToWKNmjEmL/GYTPPcRcRxXgNJJrAc5d+xVntl5gMymh/nqqsWU+wJ+dyuhnhJ5DZTlXqN/AIwBx8kkLzszvL3oCyV4nUy0PP3H2Prur3mr/TKcuMrT92xkVvQ9I/Ds2r9+jOfuPh8DPft48Xdb2Ndfys1rHueB2ZXkKf74r5crzfz27Wd563ID62/bzJ1VuQH/EufOhxPc4rIyBgavcS24fkYueZnB7UX3dQi0CEy4PFc4d/QNfrBzH50UcNZ5lC8ujtGPIrDtmOcHH5hrHNv7Ms8cOENRza1svvUO5uUpfrvuTwnSRH+pwufDivIlSNsGzzOrOsbBBEKTTlY9xPmjW3hm5wF6AY79iu85g3x15XIqMx3aOo6FT3xjLc6n/4O/2RdccAff+KN1oWbq6GeuFzubOerqaOF/CbVL59XQVJznKk8/F5rf5eXd73O8P/Chnn08u72QR2aO/AoNGyLiCcMw3HuQn2/bwkf9AJfYteOfOXR8FZvW3MuiQsU/4evlajNbf/csb18AaGbr689z7Z7HWT89D6510NwS3HcD8/JaeeH5X3IwsGTRuj/j6YbCwPaiyjpwgVPnTpIb6/jgYMijunIahRmu8vQ3s23XFn5zMji5y2WO7f05P8+9lTwiMWz8fQFinR/MFZr3P88zB/xDXnra3+UHLx5g0S2fY/P8aeQofgvuT4nUjECw87gd5UuctgneZlYNfKXCXy3ppNTXzrL3aCAJB9B7fAvPYPjKqgbOtLaFli+qqCaz230lGP8vruD2opo6d3/wLLsZAzd8mb9ZVu8vT/9J3v39y66baxCFzGtYSH3O9qjlvsC+g9diJAacLIpKCqE/HFlv+/s8+8vDrFj7JPc3VZGr+Md9vXS27mP3BfceTvP2G8/DvU9xJycJDXLOa6SqGA67PxociYCDE90icPZdnj377hgHaQGPfe5RluUboJ9zzdv59a6d4YpaEJULWDy9ivMRCwPnx8Q+PziGzJxCyoDO0MJLHPz9M5xqWccj6+5kXp7it+p+Nal65PcmOMW7HeVLlLYLHmdWdQcknbQ6p467b3+Ezld/Efj17Efv8d+xvewWrpwNLmlkbmURwz1EbGfYBN9WaSY++sMYhs0VWg68zM93H3LdDAMoWsDG2x9iZUUuvSdMjHWDy0aOKMgoWciG9XU07vsFv/yo2VXRuMTu977H4VN38eSt66hP+/j961/veilp2sSTly/xf/eedi0/zdv7dpE7bX940ew6ajLc1Tr/+sOuJBhd1uth2BiudR/gjfdf57226G0X0rjoAR5esZAy08K5EeuG71cjzo8vj5qFj/En0z/ktbd+zR7Xue1t284PX2hm5W0PcV9jZdrHn2nL/WoS9WgtIqmf3+xC3APTHeMDX/DZZnCceZSWnzx+0TIevm8TS0PtunWsvOer3FbQFmpepqSR0txr9A+5r4RB+geu0T9wjStDwV8SE7sEHZONM9Q7IgmXzd3Enz74BLdU5hMa1+9GdDyRpt/3FTPnxi/x7fW30RjVZt17+ve8f7Zb8Y/7+smi7obP86WldaFtFNZv4Jv3zmbgaDg5Li0rZ2Ag4iDhDF7jysBV+geuMRAaITJeGDA+MjOhpysqCec1cvu93+RLtyyiLFjeGOuG44s+iH4vp2wFD2/6UzbNKY3yT/PBocO0Dil+q+9fcfqxk7OxpnyJ8m3DpIyaMcbd8BOD5SeF7yu9iYfu7qVzyxEaN3yeu2fk0rL3k/BJ73qTHzz3ZtSVsI0fP7fN/+eNX+UviiPdufM30FgETu8Jth5yzRxat5IN00pxigtxTBa1i+/j7jPP8OZ5IK+RNSs/w92NVWQ4/l8oDjCcVUbjjMbwNrIzGcYEyp9JzoxGwm4ZOT7/L0BjILv2Hr748GzefPvnbDvrv5nX3fgEDzWWhbaf7vGP7/rJo2HF59jc9wyvczdfXH0TVdc+5h1XS9LH2/9XxNTzAJ/s+Ac+2QGwkM2PrY1MluVLuW32dPK4Quvxd9gfHCfNdJYsXcqMnFxKsgzD2cu4a+URTrz9Mb1AacMGNq9eS32ue1RHJrmxjoPx+7GOYbA/gMmqYvm6b1Nf8wo/fncPlwDylrL5jtupzfLvQ/Hbe/+Kzx9ZEYkeNWN3+ePzbUPcFRGM8Z9EE34GFZPlJ5WfWX0HT39+HbnZGQF/IheFj+gV6ubeyuoqA+eHIhNx1TJWL50ZLkf2TFavvoeWjzNZvWIReZc7OdV2OWJbZM1j3bJ5rgVXOdHeHFIVy+5gnfvzXc2ccL9HLKuG2zZ8i7p9P+fVnhvZvHwWmSj+iV8/FSxZ8++Yk5Xn72MyMJGDZCD6F1nxfG5ZupRCLrP/gjsRlzFv4a0sKQjvv3T2/TzQepXTMzZwS1kvnZeaOR61hzGPQ4xjeLyt2f1pimZ+lm9U1bP1zT2U3v5ZlhQF+3Yo/qm+P02+P9o5SvX8ZhcmqY+IOJU4OycrMOPnBGcWNSM/7xD5bDzys5H79VXdyRN3O3D5Y174zc9ccyFMEhof49/ftZSmm/6Ybw87/jK49q/4J8DZeWQTfrNsxC/862A4+vOBYzEc43gPjzhORcy/7QvMx+H03r/nh3smsONx4s4H/4Z11SvYuPlm8DmB/j/B/Qc43eNPEY49j0i65Dd7MIkzq4pTgq+0cbS7iIbqQjKBgor7uTcw02gQl1p/w65Qf7153LxyNqUAJUU40W+xNT78cxhEX/zunulR5Ujg9yT0DD1D8Y/Y7wT4QvsRKJlHZa6B7DKaVt5PuOcEcPUs+/ftIzjeaNqcO1lSngvkUZIN0eOC/OWKEXjw+MVKIteNNk4E+1JkxN4vKP5U4VjH3CHWzKqpxnYh/haR4A1zzIdT4mTjwY59/PQ326F4PisWr2LF7Nu4ZVbk584MuRPxLBYtu43agH/5aOSF7m8RgJFfgMAvvVEeaibmJmvC5VH8Hq6TTlo+/DdeOVNERdNqbl28gkVLZ5Hp/lzvPlpcibikbjW3zCkK+KeIfBgQLtdw1PLhMcqbqJd3OcGWIsU/5fejRHOs75n//UvGivIljC1D/C0ivsCMjsHzJU4JvnAp8MS5+zC7dxymN+c/snluWcTnIi9kQ/BXmwH/m1yjrhMMOL6oq9/ni1zPzXlzWLvxa6zgCqc/+hHvtLjWm7WBx5fMJIOxv2e9LW/x0kfHInZZW1NDvs9fQMXv4Tq5doG2MwA9dBzbykvHBvnC1zdQ5/7cmPFGjewwxn+ciDEyKHj8YpSjYvbXeGoamO4D/GrbDsI9aqq56Y5NLCi8zv14sJW977/CQXfzRP4aakp8OD7Fb8P9KNEc823ZmJTPb7bB88yq7pq5dLLrfnq63e8zL6KmtDz03Dr4+chfbafY/8GLvH32GDlLvsXansh3rUDgF92Iqz/cIjCiPJnFVNf6h5/UFz3JhZd+wsG+wGonX+fdsq/z2MomcoIrubft9NPx6StsiUrCBXOf5KFltTiK3/v10nueM+6Nz62lJPgrOvj5qFadSy3beK25lZNtTTywuZqIecHwPwoYJrolyNWCE6M82WVzmFkK1DbwSP8ZfrQreOzPsef3u6h58FGWlWRGHZ/A8eo7zDtvbotMwszk9vUbacxzvfdF8Vt0f5p8HfPRTODRlA3lS6S2Cd5nVg3O2Be8wqWTWHfRHtFmPIfy/F7azp6jq+cMXZ3nOd7RziX3fE4cYk9guvN5xscg7tm+llBcFN0XIgAD/rHt1ylfyY3ctuYwJ9/4MPSL78ze7/P9zo08evcd1GS7Pt93jN+/+wJvHb8Yua+a+3jkthspNgZH8Y+9v3Hoy92tuF6bRkFZCRndp2ju7uTixXY6zp2i41I7J12faT+yLbDOHGCIQXf5KirIN4ZY78txfMHjN1b5spmx7EFua/lHtgUL1reXV5/vpH3Dk9zbWOH6fB8dR9/ktzve4WSfe09FLLrnaVZPy8JR/NfZXyppYsCkQX6zC5PQR0ScMtzbTpv75lRZS3Hf7/nBy6+N65pwTA89XVHLGG3kSfDZ9/XLVTT3KZ4ehmffCifjyye38IOfHubmNZ9lzew82j/+Ba/t3E/U7imYcR8PP3AP0zK5/v7SPf5xcufFDyP2Ma8ii6Mf/B1boseRjoLh/ouRLQqE7ycjEvF4j1NWA6s+86c4r/wD20O1hJPsef2/cazpQe5bu5aaqx+zY/uv2dXaE7WXcpau/wb3NZUzHLpvK/504NgtImmQ3yyDpz4iQDgocdLzYHcrrpkuoK6OsvyLzASiHzjEQqavh0sRP8brKS4K/MrzRXWeCM32N77yFS94gseH4fm3w8mYvqPseuO77HojdnlKFjzO5nUrKc9y3eAVv0e+yAV3cwBzqCqbRn7URG6jIt/Hlb5u3DOkzC2pDPWRcCJukuG30o6rfLmNrPrMnzDwyvd431XGrmO/5vljvx6lPHNYdc+XWFeX5z9Giv/6+0khjjl8F5P6+c0yeGoRMQb/a4XFKcEdF49GnOO5FRX4Mnr8fRFGxa089OUHaMjJI6t/Dy+5H37XF5FH+M2f0XCMmUD5sihb/Ec8kZ/Pq6++y9kY2wujiMa1X+czy2vJdvw/AhT/JF0nV85xLuLRVAMVpVk42WMWiPp1f8Gm+TVkZ2fStvu/RHjFefmB+8nI0UJO8PiNt3y5c7l101+Qs/X7vNMc/cs/CjW38tD6zcwthmHFP+X3nynhWMfFpH5+sw3xz6zq84Vq0OJU4B462iMbjMtLKqG4l+m1qymeNYsZ1fVUVdbQ/fF3eCH0qtESCgoKyASunD9GRCqvmU5J6DqJuvpdLQLXLd/wIF0XD9Ly6SfsP77zOkkYoIcTe3/MK93LmFM/l+qqOkry88jxKX7P10lXVKvR7OnkGR+UrWbOkiJmzmikurKOct8RXv/RD0PHIye/lOzcbOAMZ467E+QyqsuywQfOiFEjxn+fMeMr38CVds62fMKRT3dy9HpJGKD9Xd757RCtc+dSX11LdVkFBTmZiv86+0ktjvpeAk7wuFtRvgSxZfDQIgKhKlYQIW0AR34y+UNttEdk0ZuoLDUM08CNn22IWD/63Z/DwDAdfHpwZ8TyG2qmjfk22uGY5Rvg6tVuui+c5ty5Zs6ePMiJM+30jb6Z2Ohr58T+rZzYvzW8rKSB+uIsiisXUZ4HGYU1lFc2UF+Wp/hd8Y11/XRfPBLxWCG/uoYigDlPsHGua/3ogxSId+j0Pna5W40qGykrIjRvRfRN0sE1SsldvoE++i6f49z5Fs62HqGl5SPORneQGQe62nayu20nu0NLiiivnUZBXg3TqyvIIZfi6npmTKslP1PxW3v/itOPlZQdTBrkN7swCX1EooIKaSM/mfyOVtzTVVA1k+KCwPsWotYf8Rzb52Ow7UP2uYcJsJq66fnheTWi51UwPv/zWWNgqJk9r27hZHcbLR3dTAglN3BTExzds4/rrtnVTEsX0BL8TdvAuif/nDofit8VXzCuSA3QT8eFiPYA5lRWhu8F7s/7Im/y/iGRPRzZvzWiUlU1fx6VwV+fxBi+6vOFjmHf0Rd47UALXaearx9rBIqpX7yC4q7dHDh9vTV7uHimh4scoSVQMc1f+k2+UO/DSfv4sff+NVl+wEr9/GYX1EdEjDHQ1XGC8+4TPG0aRcbEfHYcCQOmhyMfbolYP//mm5mV71o/Ri081Ecis5F58/LY/tp4b6/FlM27nZXLVzO7pphMA2tv7uDk4Tf5aP8+To4zmecvvZ+FVf6KRbrHP77rpJ3WiNfK1lFUmB97/RF7MzjtO9kR0eq0iKVN9a71x+4jkTf7Zmp3bYusMI6F0kUsXXY7y+YvoiwXjHmEVWd3cWPllSUAAAyNSURBVPDANg4ePDHOZN7ITUsWkwU4aR//1N+nJp1H+V6men6zDZ77iIR+HQa+fNLJqAcY8pUwq6I4lMTqqqeTbXwxPz+yZ38p8zb8FRT8mNf3nQDquHHeAnzuz8ZsEQhvP3/BA9y6bx/vtjEKKpi2aDkLZ99CY0Md+Rn+pU7gH3lVzFr+BDOXP8G1zk85eXwvx44e4Fhbxyjba+TGpUvI9oGT9vEzvuulb4iMRY0Uh5LYfCorI/swhOONMUpo+v08/phh65aX/XNYLFrL7DL3s/gYo0bcfSR8TSxZczsfvfTOqI+q8isW07TwFppmL6auzD8SJLhJB8ibsZKbZ6zk5ru7Od98gMPHf8/J5k/pHGWD+cvuZ2F1YDbadI+f61wfSaljZWWT+vnNMnibRwSA8OuFCXBkLVO+/X42JQseZ+OCJxjqP0vbqX10l1YGnk2PXD+638MwhuGsacy58y+prv8pb51awoIqE7V+NEzgGgr6dSxZcw8f/uIN/002fxq1tfOZ1jCXWdObqCopIsMXLke4DCPLl1U2nzkr5jNnBTDQR/elFi6cb6HtzEHOX7zAmbYO8pc9wIIqg6P4x3/95M9nxfp5rLhnkO6OA5w6lUVZBqE4otd3Irbi/1z2jPvY+MXF7H39F7D8RrJxotYfCbef3XgPqxre4a3AxHPF0+ZRW7ucurrZ1EyfRnFOZmg7o50/BwMZJVQ0rWVt0xrWMsjVvgt0njvNhbPHOd3WTueFw3T2NbJ8yWKyMP63Mad7/Nbev7z4IxE8V3aU7w8f/1TAOM7IxuYxVwjUIL/15/8IoQBDLu6A5aemf/Xip1y4HPSLqayfFhjiGvj8sAFf1PrDA1wdcM0n6csjJyt6+/10nu0ip7yS/NANVfHbFv+4/MEuLpxt42rAzymbTWVhdtgfdgKtRJHrD13ti5h1NDMnj4yo7Q91n6CTaZQV5pPhU/xWxp8k/sY7f83Gu7bgxpa3NrLldxutKF+i/P/zP78FwATTf8LgsUXExHCMi+Wnop9VPp/p5cHP+C/kYZePL8b6vmyyciInWxgesf18Sqbnu7an+BNR/j+In1lCeX0p7hthREy+2OubnHyyIrYV3QJlMMWzKQ/8PXJUkuKflPKniR8rDTukQ36zC97fvusKLHxbdmv58uXLly/fPj9mz01j0iK/2QRvo2bwByYWi8VicfKxIRoOJuXzm23wPrOq44R6HjuB/4I9c+XLly9fvnxr/VhZ2Zi0yG82wfuoGRP8z/Fz9GuG5cuXL1++fAv92C0iaZTfLIGHPiKGcIAE/nYFHMHy5cuXL1++XX7Mt+8akwb5zS5Mwjwi0UFFL5cvX758+fLt8x1GwiEd8ptdiL9FxPismKpWLBaLxeJ42P9fFIxJ+fxmGzxURAJjsE1gpjZDQEezfPny5cuXb5/vMBIOJvXzm2XwVBGxomonFovFYnE8bMzI5GZM6uc3yxB/H5FgMGKxWCwWJyGPOmrGkvIljC2Dpz4iGPxnTSwWi8XiJONRR82ken6zDN4ezQCOCcRlkJaWlpaWTh5NbKR8frMMk9Ii4gRYWlpaWlo6afQ4WkSsKu9kacvgoY8IgME/UxsgLS0tLS2dRDqgIuCQBvnNMnhrEQECEbogLS0tLS2dBDpW581gi4gN5Uu4tgOeRs0YiKhRSktLS0tLJ48emZgdTFrkN5vguUXEITJAaWlpaWnppNDXaRGZ8vIlSNsG7zOrOlGvGSYwk1tQy5cvX758+Tb6MeBAWuQ3m+Bx+K7B3/klWOeKwfLly5cvX76F/ujziBgrypc43y54nFnVHZC0tLS0tHTyaIeRcEiH/GYXvL19F3AId+qRlpaWlpZOFj3WqBkbypcobRvibxHBYAxT/u4esVgsFovj4hhp2cGkfH6zDXFXRPD5cAAn+AzKgANgIl87LF++fPny5dvpMxLGpH5+swzeZ1Z1CHTscUKaKC1fvnz58uVb58dIyg7pkN/sgsd5RAzhKWONtLS0tLR00ujRR82ken6zC576iGCA4Ov8AhUuaWlpaWlpm/Tts99hYCiL90+uYhhfyI+Vlh0i81tGxhAr6z8gK3OAd47ebkU8nrVliL9FxOeLjFMsFovFYgv5eGcT//L4VzjfW8Urhz7Dq4cf4OLlCmI+pjAGx+ejsqCD+xe8ysb5r1BZeJ6vPP8vKZP3bEP8FREMjgH/MyixWCwWi+3kU5dm8kHLSlbWf8CXbv4BX1jxQ95rXovPDBONpspj/Of1f83ahvdC/vstqzjVNROwIx7PbBk8tYgA4OqVKy0tLS0tbaN+Yf9jrKz/AACfGWZd43ZiYe2s90Yse2H/ozjGZ1U8nrRl8NBHBH887uqVtLS0tLS0hXpX6000dzbQUNbMRHCis5HdZ24KtCjYE49nbREmoUUkypCWlpaWlrZMO8DPDj7Gd27970wELxx4lGFfRsLLNyXaEmhmVbFYLBanBb9+bD3fWPHPlOR2jSvPXbpSyuvHN6RcvrMNnmdWxSAWi8VisfV8dTiPXx5+hC/d8K+MB7889FmuDucSHPE71eWfNLYM3vqIYIgMK6ijWb58+fLly596/+eHNvP5pT8i0zfIWBgYyuLFw48QHldjR/knx7cL3vuIjAjKjMLy5cuXL1/+1PodVyvY2ryeB2a/ylj4bfO9dFytBJ976dSXf3J8uzApfUSCCGkDOMiXL1++fPnW+c8dfPK6FZHnDj3ln2HVwvJ79i3DJLx9NxxXhDbIly9fvnz51vlHLs1nT/tN3FSzh1jY3baCI53zcHx2lt+zbxm8vWsG8L9U2OAP04SWBCFfvnz58uXb5j/7ydOjVkSCrSE2l38yfFvgoY+IIRwYgb8jA5YvX758+fJt9LefvY3TvXXUFZ7GjZaeerafXRfoB2lv+b35dsFzi8jIoKKXy5cvX758+Xb5w47huUNP8p2bvxvxiecOP8mgkzHl5Uusbxe8v33XtUxaWlpaWjpZ9EvND/OtG75HYVYvAD0DRbzcvCkt8ptN8DZqhlgNQWKxWCwW28+9gwW8eGwzX1zwbwC8eGwzlwcLprxciWbb4H1mVcfBCcwZ6wT+C75XR758+fLly7fZ/8nRp/ij+T8C4CdHngrNkWVL+RLl2wTvfURM8D/Hz9GvGZYvX758+fIt9c/0zeC3p+8BDK3906wrX0J9SzApo2b8iNbIly9fvnz51vs/PPpFHMfnmjHcrvIlxrcHCRw1Iy0tLS0tbb/+sGM5sWFH+RKn7UD8LSLGF36tMIGGH2lpaWlpaWmrtW0wjuM4E1oh0PFl4b8eTEiBBEEQBEFIHD758iIAJpj+EwZPLSL+qpbjqmq5Gfny5cuXL1++bb5liLtFZN6/HUpIgQRBEARBSBw+/eICAFKjRUQQBEEQBMEDPFRE/C0joRagKA59Tr58+fLly5dvnW8LJqGPiD84/7KAjopcvnz58uXLl2+Jbxnin0fEABjCM7U5kTqa5cuXL1++fPlT71uGSegjYsRisVgsFicN2wUPLSLht+8GIS0tLS0tLW2/tgmeW0TcDT/S0tLS0tLSdmvb4GnUjD84BycQmrS0tLS0tLT92iZ4HL4brGuJxWKxWCxODrYLnvqIRAYkLS0tLS0tbb+2C97evgu4m3mkpaWlpaWl7dc2If4WEUzsd+2IxWKxWCy2lm1D3BURfD4cwAlNnIK0tLS0tLS07doyeJ9Z1SHQcdWRlpaWlpaWtl7bBeNM8D3AJhBExa8u4K9ZuVeXlpaWlpaWtll3PFwJwATTf8LgqY+IPy4Tjk9aWlpaWlrabm0Z4m4RKX25MzI+sVgsFovF1nPnQ2UA1rSIxF0RKXn5kh1HVCwWi8Vi8bi568FSgOSviBRv6Q4sCUaItLS0tLS0tOW6e2OxX1lSEfHQR4RADcsVpLS0tLS0tLT92iLEP7Oqz//2XaLjkpaWlpaWlrZfWwLNrCoWi8VicRqxbYi7j0jea/0JKZAgCIIgCIlD/315AKRGHxH/QyexWCwWi8VJw3Yh7haR7K1XE1IgQRAEQRASh2vrcwBSoUUk3EckiJAOVLzky5cvX758+Zb5lsHzqBn3DLIR2iBfvnz58uXLt8y3DfFXRDA4EPHESVpaWlpaWtp+bRM8tIgYgnUtJ1TnkpaWlpaWlrZb24W4O6sKgiAIgpC8sKWzqm+qCyAIgiAIQvpiwo9mbKlBCYIgCIKQ/FCLiCAIgiAIUwZVRARBEARBmDKoIiIIgiAIwpRBFRFBEARBEKYMqogIgiAIgjBlUEVEEARBEIQpw/8HgEYM0VW62wUAAAAASUVORK5CYII=;" vertex="1" parent="1">
                    <mxGeometry x="-156" y="81" width="441.89" height="174" as="geometry"/>
                </mxCell>
                <mxCell id="5" value="" style="shape=image;verticalLabelPosition=bottom;labelBackgroundColor=default;verticalAlign=top;aspect=fixed;imageAspect=0;image=data:image/png,iVBORw0KGgoAAAANSUhEUgAAAGAAAAB+CAYAAADbRBTTAAAgAElEQVR4nO19e4wV153md86pqvtumubRtMFAN4842OYVnNn12A6Y8UCS0VjeJPbsymiDMYzizEqjSOthrd3NZKIA40jRSpnNSjgO0WZWiYGESRTNmmCCQwL2GNxgG7B5Nc+mm3737fu+VXX2j6pTdapu1b23XzSj5SeV7r1Vt6rO+b7f+b3qVBXhnHPckykTOtUN+P9d7hEwxXKPgCmWewRMsdwjYIrlHgFTLPcImGK5R8AUyz0CpljuETDFco+AKZZ7BEyxKFPdgLFKf38/Dh06hPZTp9Dd1QUAmNPSgtWrVuGpp57CjBkzpriF9Qn511gNPXLkCPbs2YP169dj9ZpH8PoHswEAW1b0oP3kSRw+/BY2b96MdevWTXFLa8u/OgKOHDmCX/7yl3hx6zbMX7AAAPDpv80AAD7+2yQA4Pq1a/jha7vx9NNP3/UkjNIH9OKNF5bghf29k9OaCjmFHW270G7/6u/vx549ezzgB8n8BQvw4tZt2LNnD/r7++9MU8co1Qk4uQutu05N2snbdy3BjpNhW3vxxgvPAnu3Y7W95tChQ1i//k+qgi9k/oIFWL9+PQ4dOlRxztY2awk/t5f4yZRRjoBZeO5HF/GjL8+anNZI0rv/FWxfuhevrHHXtZ86hdVr1oTv5JPVax5B+ylXgXr3b8WXsBdXOi7iSsde4NmteKN7Ils9eqEVmtC9Dy/YGtL67Ovu+pO7HM2pNEGWaarQrO59eGHXPmmbrVX2sb60G3jtWd82+3i//Wdg11dXec7S3dWFuXPnVnQiFSVIRUnF+rlz5zoRUsUxuy/hEt7GwT/0Otvddj6L1+QDSX1vfWEf3N6fwo42t9/B2NQQztv5d1p38vc559b3F/nPurglJ3byhTvbuSw9+17km/f1eNa9v3Mx/84J8Us6RtdevrnV3fb+zsWefb37SdK1l2/evJf3+FZv2rSJ9w8O8eGRjGc5fSXNT19JV6zvHxzimzZtktpl9/PETr6wdSf/mdQXb9uk//ra0rPvRQcTzz4ndvKFAW2uJUpr27MAtmAjAJw8iNe2vYQrc0ZD4Sm8uRt4bfcSSWvWYpfzdQe22lbj/sVrR6cdPpnT0oLOzk4s8PmA1pnBlrSzsxNzWlq8K0/uQusPFuG9jq8A+7fioNOHLfirjkrT2vuH3+DI22/js22vuCu3vTSufsiiXOnYix1tB8d5mC34eYfrLB2ZYPu6etUqtJ88UUFAmLSfPInVq4QZm4dFa1/Hl36wA+/96CuYBaD90tvA4trHWffq8UC/d//itTjy8qNofRkA1mLX8e0YrXekvft/4GruvEVYt/ugbYtPYYfsA0JlFTZuex3/MMbQ9NLVgP3mrMUG/Aa/9RH41FNP4fDhw7h+7VrN416/dg2HD7+Fp556yl4zC09+YS3WfWGtBVL3PvzD7rXY8NgsCHLetH1X+y7XB8x67E+Bl18PiIhsn3L8ou3UX8NzPsvRu38rWtuqO3r6N/hTbHU6/hX81bbX8aW2JWhtO4iNe7f4DrYEn335bYt1ydmu3r4Xi+11lY4qXFZ/dQfg7Cc74Vl48gvA9h97Q+AZM2Zg8+bN+OFru3Ht6lVwzisWwE3ENm/e7ClJzPryDmz4Z/t8j76CxXsFaLPw3EtbnIDgzT/Z68Hk71+9bGMiBxl2Gx+VnbAX7FkLFwF4G5dvVgFhlD7jDkoP/9lmr5M2TZObpskPHz7Mn3/+eb5nz4/56Q8/4r39A7y3f4Cf/vAjvmfPHr5p0yZ++PDhSW6fHLxY4g8yrCBECmoC5C4vRZzCjraD2NixHavsZnJb0/v6+vDWW2/h1OnTgcW4mTNnAgAIqQxPJ0rad1mhtCPb9uLK9lXStrXYdbzSNMlylxNgCZdMjGmaME3T+S6aTwgBpdT5FN/FcrfKXV+O9gNvGAZ0XYdhGMjlCzBNExFNBaUUjDEwxqAoChhjDhHA5I6E8chdTYAMvgC+XC6jWCwik80hl8/DNA2oiopYNAJVVaGqKiIR67uiWN27m0m4awngks03TRO6rqNYLCKfz2M4PYKfnAT+cC2B6+kIAGDBtDLWLSpi05oCdF1HLBYDAI8Z4pzfdSTctT5ANjtC63O5HM5eT+Pbh+PoGIoG7re4qYS/21DE4jkxxONxZzTIfuFukrvmmjAPiemF9hcKBQwNDePvqoAPAJcGNPz3gxFks1kUCtZoME2z6jmmUqacAD8QfocrNL+vfwA/etfAlSrgC7k0oOHH/2JiZGQEuVwOxWIRhmF4Iqiw899pmRIf4O+wDIJhGCiXyyiVSiiVStANA7lcHmVdx790NdZ9jqPXYvgPqzPIFwowTBP5fB6apkHTNKiqCsYYAHj8g5A7aabuKAF+4IVp0HUduq6jVCqBcw5FVcEUFRpl4MUiFKUMxihu2A63HrmRjsAw0wCIdaxIBIxSGKaJYiYDQgg0TYOiKBXRkpxbTLbcEQLCgC+VSigWi9B1HZFoFIoW8dj+iTQNnHOYnINSCkWLgBACk1tmSlEURCIRaJoG4M4SMekEyCAKUMvlMgqFAjgATYuAKiq49Wfnv6LThBAQSkEpw/yGEjqG6hsF8xtKoJSBSJGPDKTVLgItGgMlBPlCAYVCAdFoFKqqOhm1+O9kkTBpBPiBB4ByuYx8Pg8QAlWLwLS1MkyEfRbZ7WML8nUT8NiCvJMR1ypHmJxDUTVQQlAoFlEoFBCLxaCqKgBrREzWaJiUKMifRBmGgUwmg2wuB1WLgClqVeCFCC1kjEFTVfzFyhLaGgs192trLOIvVpag2c623vjf5BxMUaFqEWRzOWQyGSd6kvs0kTKhBPjjd9OOPoaHh0Eoc7S+HhGAUUoBnka5eAPZ4XP46uK3cF/kduh+c6M9+OqiQ8gOn0O5eAPg6VGXIkzOoWoREMowPDyMfD7v9Mffz/HKhGXCfpNjmiZyuRxM0/Q413rENLLIpq+j5/Yl3Lp5GaVyAZwDum6gVNaRzRRw8OYKvJtbD6JYecFMehPLGz7Bk83tUDUGTVOhKAyUEihMxdz7l2B282IkGuaDskTdbSGEQC8VQSlFPB73FPjE9vHIhBAgD0/OOXRdRyaTAVMUUFa/m8mOXEbXjTPo7LwASigoJSAE4AC4aRFrmCbyuQK6bg/i789vBeeWVr685Idobm5ENBaByhgYs0sPAisOmCaHyU3MnbsULfc/hERqUd1tMw0dhq4jmUxCURSPXxkPCeN2wv6wsVQqIZPJIBqPA6ijYVzHYN9ZXDz/DgqFDCil0FTFBo9YJMAKkCwiOBgjSGUKIFoKBBYBqWQMqVQc0ZgGZkdO8tlNzsFNyyd1d1/GrVsXEY0mseRT/wbTZz4EkOpQUKaAMsskJZNJaJrm+KjxREnjIsAPfrFYRDabRSyRQD3jarj/DM6deRvlcgGMucBTSpxPQgmo0zkCDhOEAPF4BESNOqFrIhFBIh5FNKoCBCCgsCiTwbcIYPZnuZTDRx+8BVX5PZY9vA7TZjxUo8UEsUQCmUwGiUQCkUgEpmmOi4QxE+AHv1AoIJ/PI55I1nS0xXwnLnx8BIN9XWAKg6owMIWBOeDbBBACyigIsUNBk1uaygkiURWEqs4xI1EN0YiGaFSDaVokwR41Vhtt38QpTMOEaVJQYoByCkMv4YP2NzG96TSWLnsSkdh9VfoNxBNJ5HJZcM4RjUbHRYJyov3DUe1gNcJr80ulEvRyGcuWPVAT/Nudx/Hx2WNgjEKNqGCUgjHq2GzG5EuLLhGE2LbWRlZRFIAwCC1XVQWRqAJNYwCYZbKcqie1td8CyWQmDMMEYxSGYcKgFIZhYHjoNt75/f/Bpx/8YzTPfTS0DybnMDjBeydPQ1FVxxyNxScoj6xeXvefgWCbn06nkUw1VAXf0Idw/syb6Ou9CVVlUBgDU6iHAEYpiCCBuCbIvagCgBBwU4GqKjYZVmdVVYGmKlBUBUQGH5bz5cIMcVv7qWlrrk00I6C6CUINnD93HP291/GphzaCKcEFwHg8hs8+shqZkTQaGho8PgGon4RRmSC/5pfLZYyMjCCRSlUFv5C7gRPv7Ae4CVUV123FNVxZ+732nxIfAQAICEzFhMK8KYzCKBSFQbWrnBb43BoJNgEmt0eBbTIMwwSl9mKYoMSwfY6B/r5OHP/dHjzyb7+MaPz+wH6ZnCORSmFkZAQNDQ1QVdUxQ/WaozH5AM45DMOoy+Fmhi/gxDsHoKoKFFXYemJXIV3QRcbKqCg/uLMaQGBHQ9Z3Zlr7ycIYtY6tMsA0AVD3mjKxRgK1R4FhAsS0jmmaxPYxdsRFDItoQqDrBt79/U/xmT96GqnGT4VgAcQSCWSzWaRSqVHPwqibAH+Gm8vloKgqqoWa6cGP0X7i11A11Xa0FApjUBRL8xXheAUJcuQTYPsJABACppigPgIos47DKAWolTw4beaSCaIclBOYBodhWgRQQqEbhn0+iwhdN53zvv/er7D6kT9Dw/RPh/SUQFFV5HI5JJPWbVL1OuW6CAgqLxiGAU3VQvfJDF9A+4lfW2ZBsUC3FuoxQZb2C/svRT/UBp3AY4I4YBFFfAQQ259QCssJ2HkD5yDcNkWUg5qWKSLEBDEJTIPApByEAIZ0Tr9itZ/4Ndb8EUNy2tLA/lKmoFTOI5/POxMC6iGh7lqQGM6GYSCXyyESi4f+t5C7gZPv/pMH/GxhGgwz4hLBmGO3hS8Q65jQZsk5M5sca5QA1Ndysc4dSdY+fidvncc6lzBboh1idCoKg2FGkC1M8/Th5Lv/hELuRmi/I7E4crkcDMOou15UkwDZ8Qrwo7F46MENfQjvHdtnd4xY4OcbMDySxFA6ibKuWSArTAKGOI5YZMCMUjBiabvIAxynDDfacAmgoLDrNMKmE+L4DkEGZfZIYxQKJVBEAKCI4IChVNYwlE5ieCSJbL7BCpltEk4c3w+jPBSKVdRHgozhqAnwm55yuYyyroPakUaQfHLmTYCYVoNVBYrCkEzoSMTKyORU9A3EUNJVKIpX6yijYAoFZQIUAsqYRYb9SZkAtbK8TKSIiVHLtBFPdGUdm1Eiab/i+iJGoagUpZKC/sEYMjkV8VgZyYRuBRA2AYCJT86+GQ4oYyjbE8j8FdQgqdsJC8cbjycQxuftzuPo773pRDuKbeujiglNK4AMEKQzCmgPgaIYaEi5gFIp3LTsvxVyCnss4+04Zh8BIpKxrD9xPiCtIty+AG8CnAKA7TMIkM0RdPcypDMMqaSOWU0FqIoJXbcTOM7AOUd/703c7jwemqzF4wnkcllnPlI1CSXAr/3FYhGUsVDwi/lb+PjsMSfJ8tp3hkiEQ1PL6KYEQ2nrUqGicDSkXHNBPIsXeDfLhFMl9RLgLsKBEmI7YRCHC25vpgA4JwAxQUwgk2Xo7CYYShM0NhiYM6sMTePQdZFVCz/IYHKOj88eQ2PTwsCyBYc1EorFokNAmEOuyweIyCcSCZ+Tc+Hcbx1HyhjxJFnMNiOpJDDvPgPTp5mY28IxLeXG98L2EypdCyZe4Imd+XKBopcCaZEJ8e7vJHQiAyaWOZuWAua2cExv5JjbYiCVhOUTnDyFOr+FM79w7reheEQiUedCTjUfEDgCgqqchNJQ7R/uP4OBgS5oqrCpbpIlO1zKKBpSBIoCG3y35uMBvAI46tH4WiNA7Mu5u87FgIMQ6pQpKLWOb5ocMxpNKIwjHiMwDApmY6FyObtmUOx9Bwe6Mdx/JrCKygEQSlEsFhGLxUILdjVHgGma9kXqkLCT6zj30RErppdDR1846YSHhKAhBcdh+sGXTZDQ+LFe75BNUrVzuL6HWiaRuElhcEhMnYjq3EdHAK4Hnj8Wi6NQKDiOOEhCCZAjH13XQ7V/sO8MynpRMj8+EpyY3F/n8TreYFBQAX7YTRfVbsbwElH5f+fCj+PI5czcVzCUFoVRlPUiBvvOBGLDAWdKvRwRVSXAf223WCwiFg9Pui6ef9fVGLuG40Q2RK7nSxoPOJ8WINyxzZKrrJgnJP4RalOl1e7xpAlW8EZPzvlts0AJccsflIASWLUpJ0OXa1fU6feFT94JxScWj6NYLHrAl9sfOALkCbLFYhFKSMkhO3IZhXzGTaoUkdSIuNtqpMKsqIcy9xYiENkM2Tbe53jh12pfRFQh/u1EPj5xtgtl8G630BC/KSEgokDIXJMjpsmI5I0yimIxi+zI5cAmKarmEBDkkD0E+DM3wzA8v/3SdeOMdAVLMi+eIexeVqy0wcEhp4PnWI1/iHi0XzJv/vZ42uzpj7+frpnquhFihkKwFJ9VfUCpVELULixVbDey6Lx5wdEKP/gVVU25NCCZExuCSQc/+Li+BA8SCcTNrL1EeJ0zZVafOm9egGlkA88ZjcVQKpXq9wHCBJVKJSiKWrETAGTT111QRe1Fymhl4EHgJFpwbD4k7a9etAqazj4R/xcjz/FBImSVflMitd9x1pB8huvzsunrgedRFNUhwF+kCyVAXG4kIal0b89lRyNEWZlKWiLXZoSNFZpPPKVkb+QSFuFU+10JbO39/XmG+z83OSNwNV8eDW5/Rc3K2t7bE+wHCKXO1PtQAvzRj67rUOxLbEFyq/OSdBXJp/1ONCGHkiLBkrPS6sDdKfH6A79vgDMSPGZJ9n3271udlwKPL+55kG+XEutDfYCu687s4Ipt5QGYhh5Qv3Ftv2i0q/Ww7f7UgFxb/L7BbbMcLHj8mNxvQmCaOvTyQODRVZsAv4SaIF3XnTtH/FLI9TlxtqwlUqRuabOTdodcFeJSwcwyvk4b7C++377tAccbzf5yniDck2gvnN/2nxwfZm2nFf23el/I9QU2TVEUK6Gt5gNkB6xXqfvnsn123Ew8Zsi1k8IHULuRwsb6zI9jh0Pi/JDtnHPohgFulJ1FNwyY9jzRWvvXs50424kXbEDqn+v3xO9cNpgAyphjgmQSPCru9wOEBFuozMigG555Ynu4kY60kBDLM1qTzzlHWTeQy5WQTudgZm9DFPrT6RxyuRIUVYGqsDH6E1v7pZ+koi/eJM5jAYiFzeygIxNaYf8JIcE+QNxUEdaJXHZIGo7eZMq5kALxaWtZhf33Rj71iK4bSA/ncPSsgVff+xxYqgWs4X6wVAtefe9zOHrW2q7rRl3Hqy7etju/JKUKythz2eDLlYQQ52YPWShQqfnCDIXF5/n8iGMzQcT+xFnHhXGXTIbcEP9xa8Xt7jWJEo6dB7594os4n1sKa2oiAMJwPrcU3z7xRRw7D+Ry4bWXar/lCKhiu2Pn4fgWp4vc9Rn5QiYQM4D7sLWkaiYc5utKxaL1xT4pdUaAfVBfL0Yb1wf9Nk2OfKGEn55dhjIPDg7KXMFPzy5DoViGafpJH935iKPpxAXe2ui58c9aRa3xQQhKxeBbqDhHYCZc85JkkBiG5aAJCDK5OPoGGyr+s6TVRMuonr5YXaypkDrOp+dX/d/59HyUy6frmhJSrwisb/dSXLxSCdnM6WlE1BEAgBEQagoJalMgAdUuIADAn09/AlzTAE3DE5kMtg5WPhTt5dRKHJ21EGBMnrQjh0Le3tXyA6USYHajhVCQKtiWCMXymV8EZs8BtPCJYwA85W7nu3sBWKgtYBiAaeKJ3FVsxQcVh9mZWIajqRRQLIKUSgj2Apb4sR3T3NCIokAMtKNNTTg6Zw6gqu6iKNYykUIIoKooNqUR7Qt/ZEGxKQ2oDaMPseqQo/Pm4WhLC1AuA7pufZZK7gILm9FI1UuSYX1oUNVKTZlsoRSIxzGypgROg0copyZG1pSAeLxy6txYJKhfQaNGkoaQ6kEYlqGttKZTBO81M1rliSVjJaPWfpQCsRjKy5vRt6EfhZlDDhGcmijMHELfhn6UlzcDsdjEECC3y9++EJMVjk3lbD4gxASJzC7Mkc2Nx3FuZKRyFITZ0XpFTGMIbL9lgtDYiPKaCAaW5axhL/bRGizNj8Ws/02kCQrrV8AyN+TyrZN4+UgINViUUpimAUoryxGt8XhdjfF0QF5n14k8n/WIIIExC2z5HIR4Hf1YpFqb6+kv5xY2AWJhWecIAKxJSYaug2qVBDwQjdXdoFA7OlaQCLEIqDI/ddQSBLx/exg5vuWBaPAVREPXnWcUyUIBbyIizA9jDCXbs/tlhaYFh2tjIaMaGJMptc5TT18C+rwiJPQtlUrOg0PkkRDoqSi1Zrfl8/nAg60hBFFm3wokltGQEDS8RwPOeCVsVIZ9lwEP6rO9RCnFmpCRnc9bT2+pmFYv/5BHAmMMpWIxtFD2eHNzZcOqkVCt80EyWSRUI3u0Nl/uN+d4fE5w6k8IQalY9JgggWsFAe7lRQpVVUNT6/XTm0I1oUJLajm0IGDC1o1HwsCvB/hq/bOz5fXTmwJPa9hXF/2PVAYCTJBMgqZpKIYUlz4fjbqNsFP1QODDRkY1YOrdNhoJO0415xrUdn8/DcPp/+dDcoBisQBN0yrAB2okYqqqIj08HLh9IYAnWlqCwQ/zDeLT39nRgDQaqeb8qwEf1OZqfTRNPNHSgoUhzUgPD4ferOGs8UdCgoBqhbnnZs8O1ISaZFTzExNFQj2jqlZ0E6Ttcl+l5bnm5tDTmabpMUFCAq+IyVf6rTtbIsjngmd8Pa9qmB2JhDesmi8YTVQkAzea44Tt7z9W0LHrJcE0MTsaxfMh82fzuSwikYjn2XVVTZDsAwQBA1VeB/hia1ugRlQQMRpSggAar1TT+jFovLztxda20NMO9Pc7BIzaBzDGoGmakxUHydcTCUxTlOqNrBUZ1dLiifIB9UQ9YU42ZJmmKPh6IvgRaCL7FRhW9QGA6wfkT8YYYrEYhoYGA0+SBPCNpUut+nhQI+X1dqfaBgZGR0gQUH5SahFYTfMl4D1tCwNe9EnX8Y2lS5EM4X9oaBCxWMwxP0EYB44AORdw/UAOphE82+CvY3Esa5zuNs5PhvS7bWAAz5w/jwd7eqonbwI4P4BhoPulnmP5NP7Bnh48c+GCRUIts6rrWNbYiL8OuXXLNAzkczmP+Qm6v7miGCeXoQUBqqoikUhgcHAAM2YGv6rsm62teK79fbcqqevey4+EoC2TwTNXr2JlnzV5Ka8o6Ghq8l6W9C/exo3OHI1iFLQNDGDj5ctYaSvGgYUL0RGLeZVKXgwD36xi+wcHB5BIJJwHhYc9aZECwa94pZSC9vwCX3twOVauWoPHtx9CZ5VRsJExbFuyJLixuo62oSE809GBlX19OD1zJg60taEjlfL6iXrMxGgioWr7+ex8RyqFA21tOD1zJlb29eGZjg60DQ97zI28bFuyBBtDKrJC+6PRaOD7bGSh4a94PYWdjx/ChqMf4+NzH+HwhqP49//7Grq7u4CQ+ULfbZyOlU0zKsFPp/HMjRtYOTCA001NlnYlk/U57bGSUC2RColuOpJJHFi4EKebmrByYADPXL+OtnS6oj8rm2bgu43TQ7W/u7sLyWQyUPsrCAh6xetvjvUBJw/i9a0v4dkWyxHfvnYM5KfHcI73o33/gdADfr+tDVHA0+CHhobw8PAwTjc24sC8edbQ9vuKehM6Gcww4KstMvjy+ey2dMRiODBvHk43NuLh4WE8NDTk6UuUc3y/Ldz05HM5gHPnIeD+ErTfB9DLby/Ckjmw3jL66GVseNV642nv1Q6sWzwPhPTh53/5IHYv/hb+I2GIJdP4+X89iUyILV4OYPfyFe6sgXIZv2pqwi9mz8aBOXPQEY16gfcP8SDtrAVqPaAH5SRBwYKuoyMSwYHmZvxi9mz8qqnJ6QfKZexesRJhT9njnKO761aF9lebemnR4rzidTuetDdY+9zEvq2Po+Ol83jty0tAQRGJRhChEXx07Aeh/vBpRcH3AkjoUFXvlA6fU6sroQvS5lraXQfo/jZ1aJoXfF3H91asxNNVpp30dHchlUqF2v4gIqj1itdFziteb1x6G4D1Isojf/McLn/tAv7LZwDacwVXCYWizseSP96PLbs19GTSoY3ZEolg18MPe0jwLEEkBEQadWfYYeD7R1lQVONvU0Bbdz38MLZEwh+dnxlJQ9d1xONx5x1mtZ6UAgDKk19Yi3XwveL1+CxgzgZsBbBhDUBBceon/w2/2/KP+F9qC1o2PIYjpSeR7+1FybwFbdoDgQf/WjQGbfkKfONDezZZLXtNqTuTToSz8mfALLonblqz8o7Om+eeOCjm9/uQEEccRM73VqysCn6pVERfby9mzJjhvKPGvaOy+mMsCec9/I0XHsV2S/Gxde9FvGK/ARsnd7nvlf/cd3D8tX+HJsNAqXQLb/zlenzrD9bNx7965wyWTA+/SP5LXce2Dz+wZtOJWXOK4l5clxd5GmMQAT4SfvKm9fCkTRs3hsf91Wo9VQiIwvJn1cyOaRrouHQJTU1NSCaTzqtQwmo/AQTUzmz8zw4SL9wpFArIZDIYGhrCkqWfqjrT4UMA/6mjA6cHB1zwg0jwE+AH30fCT956yyJg/fpg8KvVeIJ8g/25cnoTvt/WFupwxXkuXjiPxsZGJJNJRKNR58VA9Wg/UOfcUJEdiwMqigL5lkvTNHGl4zJaF4W/H3w5gN+1teE/D03H7osXLfBlYAyj9iiwQQ+c0CuKhdXygnq03zCwbcmSqnG+kCsdl9HQ0OA8yFu2/fU+QbfumaR+EkSVTyai49JFtC1aXHUkfLdxOtav/gy+deUKzg0PebVfAFPPKPBLuVxXvafaCFjW2IhvtraFZriOcI6Oy5cQj8cDzc5oHl88pinMokoKwHlcrzBTF85/gsVLlwbOqBOykTFsXLwY/yOfw/cuXMBwqeTV/rAp7fKsN3/nxBwmmYSwbNgH/jRFwTcefDC0sCaLaRq4dOECGhoaHPBFzC9XPevGsh4fIIv/aVrym+8KhQKy2SyGhobQumgRNK32G48yAP5nNosfXulAT7FYSUCQE5ZGwRMD1n25R5uaRANdEvf+M/gAAANTSURBVGoQMDsSwYutbfh6IhFaUpalVCriyuXLaGxsRCKRcGx+PRlvmIzpFSbVSBDvfhweHsbs5mY0TKv/9YP/WC7hjZ4eHO3q8oJfwxHbjXI//QT4zNATc+bguebm0MuIQZIeHkLP7duYNm2a85bW8YIPjJEAIJwE8erZQqGAYXs2wNz754+qUVcB/N9CAYcHB/D727dRMIzapWq3YRVLlDE83tyM9dOb8PloNHT2Qlg/O29cR7lcxrRp0xCNRh2zM17wgXEQIBoHeEkwDMMZCeKVJul0GvMXLEQiWc9Ar5STnOODUgmfFPK4ksuhM5dDX6GAdLmMoh39RBQFDaqKmdEo5sbjaI3H8UA0hhWaFjpdsJZkMxlcv3bVE+nIDne84APjJAAIJ8E/GkZGRkAZw/33zweb6NuXJlgMXceNG9dhGoZT2/Fr/USAD0wAAYBLgv9RB+KBdeLVtDn77XTJVArNzXPuOiIMXUdPz22MpNNIJpOIx+OeV+CKN6/6M9yxgg9MEAGASwLgZszijnt5NAgicrkcEskkmpvnQK11N+MkS7lUwu3b3chmMojH4w7wfq3313eA8YEPTCABQCUJwiT5R4QYFfl83nm6bMt99yHVMG3cHRpNW0fSw+i6dQuUUsRiMcRiMUfb/RofNLd/Ito6oQQICTJJYjTII0LUlEQOUShYk1hnzpqFZDJV9YFRoxVCCPRyGZnMCPp6e63n4UWjTiwvajh+Ox80o3kilWRSCAAqR4P4lIkQI0KMDkFIsVh0RkkimUQqlbLMQiQCxsRrBCsnSIh11sjTUbJzkpGREWQzGUe7RSQjNFwALy6i+EsKE631njZPFgFCgsySGBWCCJkQ+VOMFkGOWBf0XH5nopM0n0m8h1gALK+TP+VF1vbJBN457mQTAKDCjPhHhD+ElYGWAZefNhL+JET5RXDUQ4hMjD+UDNN4cczJkjtCgJBqRIhPGeQw4OXin38EyDOQg4jwrwMwJcA757iTBAgJel5PkOMWv2WCgnyLkIq59xKwsonyO9Raj6+ZTJkSAmSpRkbQ71pPchHiJ8P7fJ+pBd1z3qkmQEi1ZvhJGI3UvCY7RcA7579bCPDLZDVrqgH3y91VjJEkDKh6ibnbgA6T/wdzUtpcbKoXywAAAABJRU5ErkJggg==;" vertex="1" parent="1">
                    <mxGeometry x="371.0011254882813" y="-41.0033740234375" width="96" height="126" as="geometry"/>
                </mxCell>
                <mxCell id="6" value="角度看这个,&lt;br&gt;指向正上方是0deg, 然后顺时针是+角度" style="text;html=1;align=center;verticalAlign=middle;resizable=0;points=[];autosize=1;strokeColor=none;fillColor=none;" vertex="1" parent="1">
                    <mxGeometry x="309" y="85" width="226" height="41" as="geometry"/>
                </mxCell>
                <mxCell id="7" value="" style="shape=singleArrow;direction=west;whiteSpace=wrap;html=1;rotation=90;fillColor=#dae8fc;strokeColor=#6c8ebf;" vertex="1" parent="1">
                    <mxGeometry x="480" y="-11" width="100" height="60" as="geometry"/>
                </mxCell>
            </root>
        </mxGraphModel>
    </diagram>
</mxfile>